<svg width="265" height="68" viewBox="0 0 265 68" fill="none" xmlns="http://www.w3.org/2000/svg">
<path d="M21.5234 41.1406C21.5234 40.4844 21.4219 39.8984 21.2188 39.3828C21.0312 38.8516 20.6797 38.375 20.1641 37.9531C19.6641 37.5156 18.9531 37.0938 18.0312 36.6875C17.125 36.2656 15.9531 35.8281 14.5156 35.375C12.9219 34.875 11.4375 34.3125 10.0625 33.6875C8.6875 33.0625 7.47656 32.3359 6.42969 31.5078C5.39844 30.6797 4.59375 29.7266 4.01562 28.6484C3.4375 27.5547 3.14844 26.2891 3.14844 24.8516C3.14844 23.4453 3.44531 22.1641 4.03906 21.0078C4.64844 19.8516 5.50781 18.8594 6.61719 18.0312C7.72656 17.1875 9.03125 16.5391 10.5312 16.0859C12.0469 15.6328 13.7188 15.4062 15.5469 15.4062C18.0781 15.4062 20.2656 15.8672 22.1094 16.7891C23.9688 17.7109 25.4062 18.9609 26.4219 20.5391C27.4375 22.1172 27.9453 23.8906 27.9453 25.8594H21.5234C21.5234 24.7969 21.2969 23.8594 20.8438 23.0469C20.4062 22.2344 19.7344 21.5938 18.8281 21.125C17.9375 20.6562 16.8125 20.4219 15.4531 20.4219C14.1406 20.4219 13.0469 20.6172 12.1719 21.0078C11.3125 21.3984 10.6641 21.9297 10.2266 22.6016C9.80469 23.2734 9.59375 24.0234 9.59375 24.8516C9.59375 25.4766 9.74219 26.0391 10.0391 26.5391C10.3359 27.0234 10.7812 27.4844 11.375 27.9219C11.9688 28.3438 12.7031 28.7422 13.5781 29.1172C14.4688 29.4766 15.5 29.8359 16.6719 30.1953C18.5469 30.7578 20.1875 31.3828 21.5938 32.0703C23.0156 32.7578 24.1953 33.5391 25.1328 34.4141C26.0859 35.2891 26.7969 36.2734 27.2656 37.3672C27.75 38.4609 27.9922 39.7031 27.9922 41.0938C27.9922 42.5625 27.7031 43.875 27.125 45.0312C26.5469 46.1875 25.7188 47.1719 24.6406 47.9844C23.5625 48.7969 22.2656 49.4141 20.75 49.8359C19.25 50.2578 17.5703 50.4688 15.7109 50.4688C14.0547 50.4688 12.4141 50.25 10.7891 49.8125C9.17969 49.3594 7.71875 48.6875 6.40625 47.7969C5.09375 46.8906 4.04688 45.75 3.26562 44.375C2.48438 42.9844 2.09375 41.3594 2.09375 39.5H8.5625C8.5625 40.5781 8.73438 41.5 9.07812 42.2656C9.4375 43.0156 9.9375 43.6328 10.5781 44.1172C11.2344 44.5859 12 44.9297 12.875 45.1484C13.75 45.3672 14.6953 45.4766 15.7109 45.4766C17.0234 45.4766 18.1016 45.2969 18.9453 44.9375C19.8047 44.5625 20.4453 44.0469 20.8672 43.3906C21.3047 42.7344 21.5234 41.9844 21.5234 41.1406ZM39.0547 24.6406V50H32.8438V24.6406H39.0547ZM32.4219 18.0078C32.4219 17.0859 32.7344 16.3203 33.3594 15.7109C34 15.1016 34.8594 14.7969 35.9375 14.7969C37.0156 14.7969 37.8672 15.1016 38.4922 15.7109C39.1328 16.3203 39.4531 17.0859 39.4531 18.0078C39.4531 18.9141 39.1328 19.6719 38.4922 20.2812C37.8672 20.8906 37.0156 21.1953 35.9375 21.1953C34.8594 21.1953 34 20.8906 33.3594 20.2812C32.7344 19.6719 32.4219 18.9141 32.4219 18.0078ZM51.125 29.8438V50H44.9375V24.6406H50.7734L51.125 29.8438ZM50.2109 36.4062H48.3125C48.3125 34.6406 48.5234 33.0156 48.9453 31.5312C49.3828 30.0469 50.0234 28.7578 50.8672 27.6641C51.7109 26.5547 52.75 25.6953 53.9844 25.0859C55.2344 24.4766 56.6797 24.1719 58.3203 24.1719C59.4609 24.1719 60.5078 24.3438 61.4609 24.6875C62.4141 25.0156 63.2344 25.5391 63.9219 26.2578C64.625 26.9609 65.1641 27.8828 65.5391 29.0234C65.9141 30.1484 66.1016 31.5 66.1016 33.0781V50H59.9141V33.7109C59.9141 32.5234 59.7422 31.5938 59.3984 30.9219C59.0703 30.25 58.5938 29.7812 57.9688 29.5156C57.3438 29.2344 56.5938 29.0938 55.7188 29.0938C54.75 29.0938 53.9141 29.2891 53.2109 29.6797C52.5234 30.0547 51.9531 30.5781 51.5 31.25C51.0625 31.9219 50.7344 32.6953 50.5156 33.5703C50.3125 34.4453 50.2109 35.3906 50.2109 36.4062ZM65.6328 35.2578L63.0781 35.7266C63.0938 34.1328 63.3125 32.6406 63.7344 31.25C64.1562 29.8438 64.7734 28.6172 65.5859 27.5703C66.4141 26.5078 67.4375 25.6797 68.6562 25.0859C69.8906 24.4766 71.3125 24.1719 72.9219 24.1719C74.1719 24.1719 75.2969 24.3516 76.2969 24.7109C77.3125 25.0547 78.1797 25.6094 78.8984 26.375C79.6172 27.125 80.1641 28.1016 80.5391 29.3047C80.9297 30.5078 81.125 31.9766 81.125 33.7109V50H74.8906V33.6875C74.8906 32.4531 74.7188 31.5078 74.375 30.8516C74.0469 30.1953 73.5703 29.7422 72.9453 29.4922C72.3203 29.2266 71.5859 29.0938 70.7422 29.0938C69.8828 29.0938 69.1328 29.2578 68.4922 29.5859C67.8672 29.8984 67.3359 30.3359 66.8984 30.8984C66.4766 31.4609 66.1562 32.1172 65.9375 32.8672C65.7344 33.6016 65.6328 34.3984 65.6328 35.2578ZM92.8672 29.5156V59.75H86.6562V24.6406H92.3984L92.8672 29.5156ZM109.156 37.0625V37.5547C109.156 39.3984 108.938 41.1094 108.5 42.6875C108.078 44.25 107.453 45.6172 106.625 46.7891C105.797 47.9453 104.766 48.8516 103.531 49.5078C102.312 50.1484 100.906 50.4688 99.3125 50.4688C97.75 50.4688 96.3906 50.1719 95.2344 49.5781C94.0781 48.9688 93.1016 48.1094 92.3047 47C91.5078 45.8906 90.8672 44.6016 90.3828 43.1328C89.9141 41.6484 89.5625 40.0312 89.3281 38.2812V36.7109C89.5625 34.8516 89.9141 33.1641 90.3828 31.6484C90.8672 30.1172 91.5078 28.7969 92.3047 27.6875C93.1016 26.5625 94.0703 25.6953 95.2109 25.0859C96.3672 24.4766 97.7188 24.1719 99.2656 24.1719C100.875 24.1719 102.289 24.4766 103.508 25.0859C104.742 25.6953 105.781 26.5703 106.625 27.7109C107.469 28.8516 108.102 30.2109 108.523 31.7891C108.945 33.3672 109.156 35.125 109.156 37.0625ZM102.945 37.5547V37.0625C102.945 35.9375 102.844 34.8984 102.641 33.9453C102.438 32.9766 102.125 32.1328 101.703 31.4141C101.281 30.6797 100.734 30.1094 100.062 29.7031C99.3906 29.2969 98.5781 29.0938 97.625 29.0938C96.6719 29.0938 95.8516 29.25 95.1641 29.5625C94.4766 29.875 93.9141 30.3203 93.4766 30.8984C93.0391 31.4766 92.6953 32.1641 92.4453 32.9609C92.2109 33.7422 92.0547 34.6094 91.9766 35.5625V39.4531C92.1172 40.6094 92.3906 41.6484 92.7969 42.5703C93.2031 43.4922 93.7969 44.2266 94.5781 44.7734C95.375 45.3203 96.4062 45.5938 97.6719 45.5938C98.625 45.5938 99.4375 45.3828 100.109 44.9609C100.781 44.5391 101.328 43.9609 101.75 43.2266C102.172 42.4766 102.477 41.6172 102.664 40.6484C102.852 39.6797 102.945 38.6484 102.945 37.5547ZM120.242 14V50H114.031V14H120.242ZM137.539 50.4688C135.617 50.4688 133.891 50.1562 132.359 49.5312C130.828 48.9062 129.523 48.0391 128.445 46.9297C127.383 45.8047 126.562 44.5 125.984 43.0156C125.422 41.5156 125.141 39.9062 125.141 38.1875V37.25C125.141 35.2969 125.422 33.5234 125.984 31.9297C126.547 30.3203 127.344 28.9375 128.375 27.7812C129.406 26.625 130.641 25.7344 132.078 25.1094C133.516 24.4844 135.102 24.1719 136.836 24.1719C138.633 24.1719 140.219 24.4766 141.594 25.0859C142.969 25.6797 144.117 26.5234 145.039 27.6172C145.961 28.7109 146.656 30.0234 147.125 31.5547C147.594 33.0703 147.828 34.75 147.828 36.5938V39.1953H127.953V34.9297H141.734V34.4609C141.703 33.4766 141.516 32.5781 141.172 31.7656C140.828 30.9375 140.297 30.2812 139.578 29.7969C138.859 29.2969 137.93 29.0469 136.789 29.0469C135.867 29.0469 135.062 29.25 134.375 29.6562C133.703 30.0469 133.141 30.6094 132.688 31.3438C132.25 32.0625 131.922 32.9219 131.703 33.9219C131.484 34.9219 131.375 36.0312 131.375 37.25V38.1875C131.375 39.25 131.516 40.2344 131.797 41.1406C132.094 42.0469 132.523 42.8359 133.086 43.5078C133.664 44.1641 134.352 44.6797 135.148 45.0547C135.961 45.4141 136.883 45.5938 137.914 45.5938C139.211 45.5938 140.383 45.3438 141.43 44.8438C142.492 44.3281 143.414 43.5703 144.195 42.5703L147.312 45.8047C146.781 46.5859 146.062 47.3359 145.156 48.0547C144.266 48.7734 143.188 49.3594 141.922 49.8125C140.656 50.25 139.195 50.4688 137.539 50.4688ZM182.258 41.1406C182.258 40.4844 182.156 39.8984 181.953 39.3828C181.766 38.8516 181.414 38.375 180.898 37.9531C180.398 37.5156 179.688 37.0938 178.766 36.6875C177.859 36.2656 176.688 35.8281 175.25 35.375C173.656 34.875 172.172 34.3125 170.797 33.6875C169.422 33.0625 168.211 32.3359 167.164 31.5078C166.133 30.6797 165.328 29.7266 164.75 28.6484C164.172 27.5547 163.883 26.2891 163.883 24.8516C163.883 23.4453 164.18 22.1641 164.773 21.0078C165.383 19.8516 166.242 18.8594 167.352 18.0312C168.461 17.1875 169.766 16.5391 171.266 16.0859C172.781 15.6328 174.453 15.4062 176.281 15.4062C178.812 15.4062 181 15.8672 182.844 16.7891C184.703 17.7109 186.141 18.9609 187.156 20.5391C188.172 22.1172 188.68 23.8906 188.68 25.8594H182.258C182.258 24.7969 182.031 23.8594 181.578 23.0469C181.141 22.2344 180.469 21.5938 179.562 21.125C178.672 20.6562 177.547 20.4219 176.188 20.4219C174.875 20.4219 173.781 20.6172 172.906 21.0078C172.047 21.3984 171.398 21.9297 170.961 22.6016C170.539 23.2734 170.328 24.0234 170.328 24.8516C170.328 25.4766 170.477 26.0391 170.773 26.5391C171.07 27.0234 171.516 27.4844 172.109 27.9219C172.703 28.3438 173.438 28.7422 174.312 29.1172C175.203 29.4766 176.234 29.8359 177.406 30.1953C179.281 30.7578 180.922 31.3828 182.328 32.0703C183.75 32.7578 184.93 33.5391 185.867 34.4141C186.82 35.2891 187.531 36.2734 188 37.3672C188.484 38.4609 188.727 39.7031 188.727 41.0938C188.727 42.5625 188.438 43.875 187.859 45.0312C187.281 46.1875 186.453 47.1719 185.375 47.9844C184.297 48.7969 183 49.4141 181.484 49.8359C179.984 50.2578 178.305 50.4688 176.445 50.4688C174.789 50.4688 173.148 50.25 171.523 49.8125C169.914 49.3594 168.453 48.6875 167.141 47.7969C165.828 46.8906 164.781 45.75 164 44.375C163.219 42.9844 162.828 41.3594 162.828 39.5H169.297C169.297 40.5781 169.469 41.5 169.812 42.2656C170.172 43.0156 170.672 43.6328 171.312 44.1172C171.969 44.5859 172.734 44.9297 173.609 45.1484C174.484 45.3672 175.43 45.4766 176.445 45.4766C177.758 45.4766 178.836 45.2969 179.68 44.9375C180.539 44.5625 181.18 44.0469 181.602 43.3906C182.039 42.7344 182.258 41.9844 182.258 41.1406ZM206.82 37.5547H198.031V32.4922H206.82C208.258 32.4922 209.422 32.2578 210.312 31.7891C211.219 31.3047 211.883 30.6484 212.305 29.8203C212.727 28.9766 212.938 28.0156 212.938 26.9375C212.938 25.8906 212.727 24.9141 212.305 24.0078C211.883 23.1016 211.219 22.3672 210.312 21.8047C209.422 21.2422 208.258 20.9609 206.82 20.9609H200.141V50H193.695V15.875H206.82C209.477 15.875 211.742 16.3516 213.617 17.3047C215.508 18.2422 216.945 19.5469 217.93 21.2188C218.93 22.875 219.43 24.7656 219.43 26.8906C219.43 29.0938 218.93 30.9922 217.93 32.5859C216.945 34.1797 215.508 35.4062 213.617 36.2656C211.742 37.125 209.477 37.5547 206.82 37.5547ZM234.359 21.0547L224.633 50H217.812L230.562 15.875H234.922L234.359 21.0547ZM242.492 50L232.719 21.0547L232.133 15.875H236.516L249.336 50H242.492ZM242.047 37.3203V42.4062H223.742V37.3203H242.047Z" fill="#7E5CEF"/>
<circle cx="257.5" cy="7.5" r="7.5" fill="#7E5CEF"/>
</svg>
